<svg id="Layer_2" data-name="Layer 2" xmlns="http://www.w3.org/2000/svg" viewBox="0 0 142.5 142.5"><defs><style>.cls-1{fill:#a466ac;stroke:#000;stroke-miterlimit:10;stroke-width:4px;}.cls-2{fill:#ff7bac;}</style></defs><circle class="cls-1" cx="71.25" cy="71.25" r="69.25"/><path class="cls-2" d="M948.55,562.33h0l0-8.29a2.94,2.94,0,0,0-.23-1.38c-.54-1-2.16-1-3.06-.28a5.93,5.93,0,0,0-1.59,3.08c-.39,1.34-.78,2.68-1.16,4-.81-1.55-.73-3.4-.93-5.14a12,12,0,0,0-4.91-8.62c-3.46-2.31-8.08-2.24-11.61-4.42a49.25,49.25,0,0,0,9.52-2.71,8.57,8.57,0,0,1,2-.62h1.62a.57.57,0,0,1,.36.08c.26.21,0,.62-.26.84l-2.08,1.75a35.91,35.91,0,0,0,5.84-2.29,12.87,12.87,0,0,1,6.06-1.32,5.56,5.56,0,0,1,4.88,3.37l-.32,0a6.26,6.26,0,0,0-5.67-.12,2.76,2.76,0,0,0-1.3,1.15,1.47,1.47,0,0,0-.11,1h0l.06.26a4.53,4.53,0,0,0,2.78,1.44,15.81,15.81,0,0,0,6.13,0c1.44-.27,2.83-.75,4.28-1a7.77,7.77,0,0,1,4.33.22,4,4,0,0,1,2.61,3.25l-.05.06a4.73,4.73,0,0,0-1.72-.68,1.55,1.55,0,0,0-1.57.76,1.69,1.69,0,0,0-.13.77,4.9,4.9,0,0,0,2.94,3.93,24.52,24.52,0,0,0,4.93,1.45,8.13,8.13,0,0,1,4.46,2.39v.1a.68.68,0,0,1-.35.7,1.94,1.94,0,0,1-.8.21l-2.24.27a2,2,0,0,0-1.39.53,1.44,1.44,0,0,0,.6,2,4.73,4.73,0,0,0,2.37.36,42.69,42.69,0,0,1,8.46,1.13h0a3.06,3.06,0,0,1,1.83,1.48,10.36,10.36,0,0,1,1.6,6.63,4.36,4.36,0,0,1-.52,1.82,2.85,2.85,0,0,1-3.36,1.16,2.15,2.15,0,0,1-1.21-1.06,1.57,1.57,0,0,1,0-1.37l.16,0a1.8,1.8,0,0,0,2.85-1.68,1.12,1.12,0,0,0-.35-.72,1.57,1.57,0,0,0-.76-.29,3.93,3.93,0,0,0-3.21.45c-1.14.93-1,2.69-.81,4.15a2.9,2.9,0,0,0,.42,1.28,3.6,3.6,0,0,0,.65.58,12.18,12.18,0,0,1,3.12,3,4.9,4.9,0,0,1,.84,3.78v0c-.24.83-.49,1.66-.73,2.49a42.18,42.18,0,0,0-6.26-9.06c-.48-.52-1.39-1-1.8-.44-.23.34-.06.8.11,1.18a34.91,34.91,0,0,0,14.09,15.27l-.11.19a4,4,0,0,1-3.19.12,15.07,15.07,0,0,0-3.18-.89,1.29,1.29,0,0,0-.88.19.55.55,0,0,0-.1.8l-.12.14a14.43,14.43,0,0,1,2.58,2.66,15.34,15.34,0,0,1,1.29,2.52c1.32,3,2.65,6.14,2.59,9.42h0c-1.88.06-3.34-1.59-4.38-3.15s-2.18-3.33-4-3.78c.28,1.8,1.61,3.3,1.9,5.1s-.61,3.82-1.51,5.56c-1-.36-1.28-1.61-1.63-2.61a7.63,7.63,0,0,0-2.88-3.76,1.15,1.15,0,0,0-.6-.26c-.6,0-.91.69-1.08,1.27A17.52,17.52,0,0,1,962.46,614l.24-4,2.33-.52a3.63,3.63,0,0,0,3.28-3.92,5.45,5.45,0,0,0,.05-2.05A2,2,0,0,0,967.1,602a2,2,0,0,0-1.86.6,3.11,3.11,0,0,0-.92,2.47l1.94-1.35,0,0a2.17,2.17,0,0,1-2.36,2.57c-1.31-.28-1.94-1.91-1.64-3.21a7.59,7.59,0,0,1,2.18-3.32l2.66-2.82a5.06,5.06,0,0,0,.92-1.19,4.21,4.21,0,0,0,.39-1.52,13.72,13.72,0,0,0-.09-3.62c-.11-.67-.38-1.44-1-1.63a1.29,1.29,0,0,0-1.31.51,3.44,3.44,0,0,0-.6,1.35,31.74,31.74,0,0,0-.87,4.63h0A4,4,0,0,1,963,593a11.82,11.82,0,0,1-.07-3,6.9,6.9,0,0,1,.14-1.21c.2-.83.7-1.57.83-2.4h0l2.58-6.47a8.55,8.55,0,0,0,.61-2,7.45,7.45,0,0,0-.44-3,4,4,0,0,0-.56-1.2,3.89,3.89,0,0,0-2.81-1.05,9.15,9.15,0,0,0-2.56,0,3.2,3.2,0,0,0-2.15,1.28,2,2,0,0,0,.12,2.38,2.4,2.4,0,0,0,1.38.62,1.75,1.75,0,0,0,1.4-.26c.37-.32.37-1-.08-1.22l.15-.19c-.06-.79,1.17-1.13,1.74-.57a2.06,2.06,0,0,1,.2,2.22,5.34,5.34,0,0,1-4.05,3,3.76,3.76,0,0,1-2.72-.41c-1.18-.8-1.45-2.4-1.62-3.81-.35-2.88-.7-5.75-1-8.63-.1-.83-.34-1.82-1.14-2.06-1-.29-1.76.8-2.17,1.74a48.65,48.65,0,0,0-1.81,4.85A72.81,72.81,0,0,1,948.55,562.33Z" transform="translate(-864 -505)"/><path d="M920.65,564.89h.15a1,1,0,0,0,1,0,1.93,1.93,0,0,0,.74-.76,4.22,4.22,0,0,0,.43-3.38.7.7,0,0,0-.14-.27c-.28-.29-.76,0-1,.37A6.88,6.88,0,0,0,920.65,564.89Zm3.17-5.8c-.26-.06-.52-.16-.77-.22a3.44,3.44,0,0,0-2.55.51,7.11,7.11,0,0,0-1.88,1.87,3,3,0,0,0-.72,2.78l.27.09a3.8,3.8,0,0,1,.81-1,19.26,19.26,0,0,0,1.39-2.15,2.91,2.91,0,0,1,2-1.45c.49,0,1.07.08,1.42-.27Zm-8.35,1.08,0-.07a9.73,9.73,0,0,0,.65-4.59c-.2-2-1-3.88-1.15-5.87a.61.61,0,0,1,0-.27h0l-.3,0v-.23c3.34-1.12,5.76-3.94,8.23-6.45a9.71,9.71,0,0,1,1.41-1.24l.62-.11c3.53,2.18,8.15,2.11,11.61,4.42a12,12,0,0,1,4.91,8.62c.2,1.74.12,3.59.93,5.14.38-1.35.77-2.69,1.16-4a5.93,5.93,0,0,1,1.59-3.08c.9-.75,2.52-.76,3.06.28a2.94,2.94,0,0,1,.23,1.38l0,8.29h0a72.81,72.81,0,0,0,.36,9.1,48.65,48.65,0,0,1,1.81-4.85c.41-.94,1.2-2,2.17-1.74.8.24,1,1.23,1.14,2.06.34,2.88.69,5.75,1,8.63.17,1.41.44,3,1.62,3.81a3.76,3.76,0,0,0,2.72.41,5.34,5.34,0,0,0,4.05-3,2.06,2.06,0,0,0-.2-2.22c-.57-.56-1.8-.22-1.74.57l-.15.19c.45.18.45.9.08,1.22a1.75,1.75,0,0,1-1.4.26,2.4,2.4,0,0,1-1.38-.62,2,2,0,0,1-.12-2.38,3.2,3.2,0,0,1,2.15-1.28,9.15,9.15,0,0,1,2.56,0,3.89,3.89,0,0,1,2.81,1.05,4,4,0,0,1,.56,1.2,7.45,7.45,0,0,1,.44,3,8.55,8.55,0,0,1-.61,2l-2.58,6.47h0c-.13.83-.63,1.57-.83,2.4a6.9,6.9,0,0,0-.14,1.21,11.82,11.82,0,0,0,.07,3,4,4,0,0,0,1.51,2.55h0a31.74,31.74,0,0,1,.87-4.63,3.44,3.44,0,0,1,.6-1.35,1.29,1.29,0,0,1,1.31-.51c.65.19.92,1,1,1.63a13.72,13.72,0,0,1,.09,3.62,4.21,4.21,0,0,1-.39,1.52,5.06,5.06,0,0,1-.92,1.19l-2.66,2.82a7.59,7.59,0,0,0-2.18,3.32c-.3,1.3.33,2.93,1.64,3.21a2.17,2.17,0,0,0,2.36-2.57l0,0-1.94,1.35a3.11,3.11,0,0,1,.92-2.47,2,2,0,0,1,1.86-.6,2,2,0,0,1,1.26,1.51,5.45,5.45,0,0,1-.05,2.05A3.63,3.63,0,0,1,965,609.5l-2.33.52,0-.3-.18.34-3,5.68v0a6.39,6.39,0,0,1-3.47-.59l-.49,0a8.39,8.39,0,0,0-6.54-2.17c-.95.11-1.87.38-2.81.55a27.19,27.19,0,0,1-4.51.28,26.8,26.8,0,0,1-7.21-.62c-1.37-.38-2.68-1-4-1.36a31.12,31.12,0,0,1-3.34-.94c-1.88-.78-3.4-2.31-5.32-3l.07-.32a14.54,14.54,0,0,1,2.65-4.48,139.38,139.38,0,0,1,9.19-10.68c2.13-2.23,4.37-4.45,5.65-7.25.16-1.73.24-3.47.24-5.21,0-1.49-.14-3.15-1.25-4.14a1,1,0,0,0-1.1-.29,1.15,1.15,0,0,0-.48.58c-1.37,2.91-.6,6.35-1.14,9.52-.2,1.2-.75,2.52-1.91,2.89a10.35,10.35,0,0,0-1.25.3c-.58.27-.9.88-1.3,1.39s-1.06,1-1.65.69a1.24,1.24,0,0,1-.53-1.45,5.16,5.16,0,0,1,.82-1.46,4.26,4.26,0,0,0,.8-3.23,2.22,2.22,0,0,0-2.52-1.75,2.3,2.3,0,0,0-1.46,1.47,5.88,5.88,0,0,0-.24,2.13,30,30,0,0,0,.56,5.27,1.81,1.81,0,0,1,0,.83,1.3,1.3,0,0,1-1.25.88,3.23,3.23,0,0,1-1.55-.5,15.09,15.09,0,0,1-7.64-10q-.13-6-.26-12a11.85,11.85,0,0,0-.35-3.15c-.43-1.44-1.39-2.67-1.8-4.12s0-3.15,1.22-3.71Zm5.92,27.17a1.82,1.82,0,0,0,.07-1,5.19,5.19,0,0,0-.4-1.74.23.23,0,0,0-.3-.16c-.33,0-.72.09-.82.4a1.06,1.06,0,0,0,0,.25v.15h-.06a2.1,2.1,0,0,0,.39,1.75.8.8,0,0,0,.34.66A.64.64,0,0,0,921.39,587.34Z" transform="translate(-864 -505)"/><path class="cls-2" d="M923.82,559.09l0,.13c-.35.35-.93.22-1.42.27a2.91,2.91,0,0,0-2,1.45,19.26,19.26,0,0,1-1.39,2.15,3.8,3.8,0,0,0-.81,1l-.27-.09a3,3,0,0,1,.72-2.78,7.11,7.11,0,0,1,1.88-1.87,3.44,3.44,0,0,1,2.55-.51C923.3,558.93,923.56,559,923.82,559.09Z" transform="translate(-864 -505)"/><path class="cls-2" d="M923,560.76a4.22,4.22,0,0,1-.43,3.38,1.93,1.93,0,0,1-.74.76,1,1,0,0,1-1,0h-.15a6.88,6.88,0,0,1,1.21-4c.23-.33.71-.66,1-.37A.7.7,0,0,1,923,560.76Z" transform="translate(-864 -505)"/><path class="cls-2" d="M921.46,586.38a1.82,1.82,0,0,1-.07,1,.64.64,0,0,1-.8.35.8.8,0,0,1-.34-.66l0,0a.57.57,0,0,0,.27.13c.3,0,.49-.33.45-.63a4.05,4.05,0,0,0-.33-.81.67.67,0,0,1,.14-.81.52.52,0,0,0-.76.41h-.13v-.24a1.06,1.06,0,0,1,0-.25c.1-.31.49-.38.82-.4a.23.23,0,0,1,.3.16A5.19,5.19,0,0,1,921.46,586.38Z" transform="translate(-864 -505)"/><path class="cls-2" d="M920.05,585.36a.52.52,0,0,1,.76-.41.67.67,0,0,0-.14.81,4.05,4.05,0,0,1,.33.81c0,.3-.15.66-.45.63a.57.57,0,0,1-.27-.13l0,0a2.1,2.1,0,0,1-.39-1.75h.06v.09Z" transform="translate(-864 -505)"/><path class="cls-2" d="M916.15,555.51a9.73,9.73,0,0,1-.65,4.59l-.08,0a15.54,15.54,0,0,1-.4-10.71h0a.61.61,0,0,0,0,.27C915.14,551.63,916,553.53,916.15,555.51Z" transform="translate(-864 -505)"/><path d="M915.5,560.1l0,.07-.11,0-2.1-1.22.08-.13-.6-2.42a12.37,12.37,0,0,1-.52-3.71,4.29,4.29,0,0,1,1.58-3.28l0-.18c.3,0,.6.06.9.07l.3,0a15.54,15.54,0,0,0,.4,10.71Z" transform="translate(-864 -505)"/><path class="cls-2" d="M913.82,549.27l0,.18a4.29,4.29,0,0,0-1.58,3.28,12.37,12.37,0,0,0,.52,3.71l.6,2.42-.08.13-2.72-1.64.07-.12a6.49,6.49,0,0,1-.65-3.15c0-.77,0-1.53-.06-2.3a3.41,3.41,0,0,1,.27-1.71,3.38,3.38,0,0,1,1.09-1.07l0-.1C912.12,549.06,913,549.19,913.82,549.27Z" transform="translate(-864 -505)"/><path d="M911.28,548.9l0,.1a3.38,3.38,0,0,0-1.09,1.07,3.41,3.41,0,0,0-.27,1.71c0,.77,0,1.53.06,2.3a6.49,6.49,0,0,0,.65,3.15l-.07.12-2.45-1.52h0l0-.08c-.13-.5.24-1,.38-1.47a5.59,5.59,0,0,0-.28-2.41,8.6,8.6,0,0,1,.32-3.59v0C909.46,548.51,910.37,548.72,911.28,548.9Z" transform="translate(-864 -505)"/><path class="cls-2" d="M908.56,548.26v0a8.6,8.6,0,0,0-.32,3.59,5.59,5.59,0,0,1,.28,2.41c-.14.5-.51,1-.38,1.47l0,.08-1.07-.68c.38-1.59-.52-3.21-.52-4.85a9.06,9.06,0,0,1,.44-2.41l0-.09C907.5,548,908,548.12,908.56,548.26Z" transform="translate(-864 -505)"/><path d="M906.5,550.3c0,1.64.9,3.26.52,4.85-.71-.45-1.41-.91-2.11-1.37l0,0c0-.5.07-1,.1-1.5a6.15,6.15,0,0,0,0-1c-.08-.94-.57-1.8-.6-2.74,0-.49.11-1,.06-1.45l0-.1c.8.28,1.61.56,2.43.81l0,.09A9.06,9.06,0,0,0,906.5,550.3Z" transform="translate(-864 -505)"/><path class="cls-2" d="M905,551.28a6.15,6.15,0,0,1,0,1c0,.5-.07,1-.1,1.5l0,0-2-1.36,0-.07a18.28,18.28,0,0,1,.23-2.06c.06-1.38-.72-2.65-.92-4l0-.12.8.3,1.48.54,0,.1c0,.48-.07,1-.06,1.45C904.47,549.48,905,550.34,905,551.28Z" transform="translate(-864 -505)"/><path d="M902.22,546.27c.2,1.37,1,2.64.92,4a18.28,18.28,0,0,0-.23,2.06l0,.07-2.24-1.53a7,7,0,0,0,0-3.15c-.27-.86-.88-1.65-.82-2.54l2.45.95Z" transform="translate(-864 -505)"/><path class="cls-2" d="M900.63,547.74a7,7,0,0,1,0,3.15l-2-1.41,0-.07a3.63,3.63,0,0,0-.18-2.38,6.12,6.12,0,0,1-.48-2.37l0,0a.12.12,0,0,0,0-.05l0-.09,1.77.73C899.75,546.09,900.36,546.88,900.63,547.74Z" transform="translate(-864 -505)"/><path d="M898.48,547a3.63,3.63,0,0,1,.18,2.38l0,.07-2.13-1.54,0-.08s.09,0,.1-.09a3.89,3.89,0,0,0,0-2.06,7.45,7.45,0,0,0-.54-1.05,1.88,1.88,0,0,1-.3-1.12v0l2.22,1,0,.09a.12.12,0,0,1,0,.05l0,0A6.12,6.12,0,0,0,898.48,547Z" transform="translate(-864 -505)"/><path class="cls-2" d="M896.53,547.86l0,.08c-.73-.53-1.45-1.07-2.17-1.61l0-.05c.21-.58-.15-1.19-.37-1.76a4,4,0,0,1-.24-1.86l0-.06,2.05.92v0a1.88,1.88,0,0,0,.3,1.12,7.45,7.45,0,0,1,.54,1.05,3.89,3.89,0,0,1,0,2.06C896.62,547.83,896.56,547.89,896.53,547.86Z" transform="translate(-864 -505)"/><path d="M894,544.52c.22.57.58,1.18.37,1.76l0,.05c-.68-.51-1.36-1-2-1.54,0-1-.84-2-.58-3l.06-.12,2,.94,0,.06A4,4,0,0,0,894,544.52Z" transform="translate(-864 -505)"/><path class="cls-2" d="M891.76,541.66l-.06.12c-.26,1,.56,2,.58,3-.66-.51-1.32-1-2-1.54l0,0a5.35,5.35,0,0,0-.68-2.53l0-.06Z" transform="translate(-864 -505)"/><path d="M890.33,543.22l0,0c-.75-.59-1.49-1.18-2.22-1.78l.07-.1a1.39,1.39,0,0,0-.36-1.07c-.25-.3-.55-.56-.77-.88l.05-.11,0,0c.87.46,1.75.91,2.63,1.35l0,.06A5.35,5.35,0,0,1,890.33,543.22Z" transform="translate(-864 -505)"/><path class="cls-2" d="M883.33,537.47a.21.21,0,0,1-.07-.15l1,.41c.94.53,1.88,1,2.83,1.55l0,0-.05.11c.22.32.52.58.77.88a1.39,1.39,0,0,1,.36,1.07l-.07.1q-2.42-2-4.77-4Z" transform="translate(-864 -505)"/></svg>